<mxfile host="app.diagrams.net" modified="2023-11-30T06:49:51.261Z" agent="Mozilla/5.0 (X11; Linux x86_64) AppleWebKit/537.36 (KHTML, like Gecko) Chrome/118.0.0.0 Safari/537.36" version="22.1.5" etag="p2hoIapm9jK1eQ7OGFl2" type="github">
  <diagram name="第 1 页" id="kSxrRkjhzY-FSQ6NUb_P">
    <mxGraphModel>
      <root>
        <mxCell id="0" />
        <mxCell id="1" parent="0" />
      </root>
    </mxGraphModel>
  </diagram>
</mxfile>
